<svg width="215" height="58" viewBox="0 0 215 58" fill="none" xmlns="http://www.w3.org/2000/svg">
<g clip-path="url(#clip0_30_2)">
<path d="M77.6116 15.2279V38.7472C77.6116 49.6444 71.6836 53.4859 64.9652 53.4859C60.3809 53.4859 56.0337 51.134 53.7416 47.6061L58.0888 44.7838C59.4324 46.9005 61.9617 48.3117 64.7281 48.3117C69.0753 48.3117 72.3159 45.2542 72.3159 39.2176V38.4336C70.419 40.4719 67.6526 41.6479 64.2538 41.6479C56.587 41.6479 52.0027 35.6113 52.0027 28.2419C52.0027 20.8725 56.587 14.8359 64.2538 14.8359C67.6526 14.8359 70.3399 16.0119 72.3159 18.0502V15.2279H77.6116ZM72.1578 28.3203C72.1578 23.8517 69.7866 20.0102 65.0442 20.0102C60.2228 20.0102 57.8516 23.7733 57.8516 28.3203C57.8516 32.8674 60.3019 36.6305 65.0442 36.6305C69.7076 36.5521 72.1578 32.789 72.1578 28.3203Z" fill="white"/>
<path d="M107.331 28.3203C107.331 35.6897 102.114 41.7263 94.5261 41.7263C86.9383 41.7263 81.7217 35.6897 81.7217 28.3203C81.7217 20.9509 86.9383 14.9143 94.5261 14.9143C102.193 14.8359 107.331 20.9509 107.331 28.3203ZM101.877 28.3203C101.877 23.8516 99.3475 20.0102 94.5261 20.0102C89.7837 20.0102 87.1754 23.7732 87.1754 28.3203C87.1754 32.8674 89.7047 36.6304 94.5261 36.6304C99.2685 36.552 101.877 32.789 101.877 28.3203Z" fill="white"/>
<path d="M125.984 5.50669L123.059 9.26977C122.032 8.329 120.135 7.93701 119.186 8.329C118.001 8.79938 117.606 9.97535 117.606 11.9353V15.228H122.348V19.9318H117.606V41.3344H112.31V19.9318H109.227V15.228H112.31V11.8569C112.31 7.07464 113.97 4.40912 117.21 3.38995C119.977 2.60598 123.929 3.54675 125.984 5.50669Z" fill="white"/>
<path d="M127.328 8.17222C127.328 6.52587 128.671 5.19312 130.41 5.19312C132.07 5.19312 133.414 6.52587 133.414 8.17222C133.414 9.81857 132.07 11.2297 130.41 11.2297C128.671 11.2297 127.328 9.89697 127.328 8.17222ZM127.802 15.228H133.018V41.3344H127.802V15.228Z" fill="white"/>
<path d="M162.421 3.46826V41.3343H157.205V38.512C155.308 40.5503 152.541 41.7263 149.143 41.7263C141.476 41.7263 136.891 35.6896 136.891 28.3203C136.891 20.9509 141.476 14.9143 149.143 14.9143C152.541 14.9143 155.229 16.0903 157.205 18.1286V3.46826H162.421ZM156.967 28.3203C156.967 23.8516 154.596 20.0101 149.854 20.0101C145.032 20.0101 142.661 23.7732 142.661 28.3203C142.661 32.8673 145.111 36.6304 149.854 36.6304C154.517 36.552 156.967 32.7889 156.967 28.3203Z" fill="white"/>
<path d="M172.38 30.9074C173.171 34.1217 175.542 36.6304 179.336 36.6304C182.102 36.6304 184.157 35.2977 185.343 33.4161L190.085 35.6896C187.951 39.3743 184.157 41.8047 179.336 41.8047C171.669 41.8047 166.531 35.768 166.531 28.3987C166.531 21.0293 171.59 14.9927 179.178 14.9927C186.844 14.9927 190.875 21.0293 190.875 28.3987C190.875 29.261 190.796 30.1234 190.638 30.9858H172.38V30.9074ZM172.301 26.0467H185.659C185.106 22.5973 183.209 20.0101 179.257 20.0101C175.305 20.0101 173.013 22.5973 172.301 26.0467ZM186.686 3.46826L181.154 10.8376H177.36L181.47 3.46826H186.686Z" fill="white"/>
<path d="M205.261 41.8047C199.254 41.8047 195.46 38.7472 194.195 35.1409L199.096 33.4162C199.728 35.0625 201.467 36.6305 205.024 36.6305C208.501 36.6305 209.845 34.9841 209.687 33.4946C209.529 32.2402 207.948 31.4562 203.838 30.6723C198.779 29.6531 195.618 28.0851 194.986 24.0869C194.274 20.0102 197.041 14.7576 204.312 14.7576C211.11 14.7576 213.56 19.383 214.034 21.0294L209.134 22.6757C208.501 20.8726 206.367 19.775 204.312 19.775C200.835 19.775 200.202 21.5782 200.202 22.5189C200.202 23.9301 201.309 25.106 205.577 25.89C211.584 26.9876 214.666 28.7907 214.983 32.8674C215.299 38.12 211.268 41.8047 205.261 41.8047Z" fill="white"/>
<path d="M34.9851 46.3534C32.851 51.5276 29.5314 55.0555 25.0261 56.7803C20.837 58.3482 16.3317 58.1914 11.5894 56.3099C6.84697 54.4283 3.52729 51.3708 1.5513 47.059C-0.503733 42.5903 -0.503733 37.9649 1.47226 33.0258L11.5894 7.93861C12.933 4.72432 15.1461 2.37239 18.3868 1.03963C21.6274 -0.293127 24.868 -0.371524 28.1087 0.961234C31.2703 2.21559 33.5624 4.48912 34.9061 7.70342C36.2498 10.9177 36.3288 14.132 35.0642 17.2679L26.2907 38.984C25.5794 40.7872 24.2357 42.1199 22.4178 42.9039C20.5999 43.6879 18.7029 43.6879 16.885 42.9823C14.9881 42.2767 13.7234 40.944 12.933 39.1408C12.1426 37.3377 12.1426 35.4561 12.854 33.653L21.7064 11.8585L25.0261 13.1912L16.1737 34.9074C15.8575 35.7697 15.8575 36.7105 16.1737 37.6513C16.4898 38.592 17.1221 39.2192 18.0706 39.6112C19.0191 40.0032 19.9676 40.0032 20.916 39.6112C21.8645 39.2192 22.5759 38.592 22.9711 37.6513L31.7445 15.9352C32.693 13.6616 32.693 11.3097 31.6655 9.03618C30.717 6.76265 29.0571 5.1947 26.765 4.25393C24.3938 3.31316 22.1016 3.31316 19.8095 4.33233C17.5173 5.2731 15.8575 6.91944 14.909 9.27137L4.79193 34.3586C3.29018 38.0433 3.36922 41.7279 4.95001 45.3342C6.53081 49.0189 9.21816 51.5276 12.854 53.0172C16.5689 54.5067 20.2047 54.4283 23.9196 52.8604C27.6344 51.2924 30.1637 48.7053 31.6655 45.0206L38.1467 29.0275L41.4664 30.3603L34.9851 46.3534Z" fill="url(#paint0_linear_30_2)"/>
</g>
<defs>
<linearGradient id="paint0_linear_30_2" x1="65.3705" y1="-7.88632" x2="12.1201" y2="37.9052" gradientUnits="userSpaceOnUse">
<stop offset="0.4929" stop-color="#04D9D9"/>
<stop offset="0.577" stop-color="#1CBAE2"/>
<stop offset="0.7095" stop-color="#3D8FEE"/>
<stop offset="0.8289" stop-color="#5570F8"/>
<stop offset="0.9297" stop-color="#645DFD"/>
<stop offset="1" stop-color="#6956FF"/>
</linearGradient>
<clipPath id="clip0_30_2">
<rect width="215" height="58" fill="white"/>
</clipPath>
</defs>
</svg>
