<svg width="278" height="75" viewBox="0 0 278 75" fill="none" xmlns="http://www.w3.org/2000/svg">
<path d="M100.354 19.6899V50.1008C100.354 64.1912 92.6885 69.1583 84.0015 69.1583C78.0739 69.1583 72.4529 66.1172 69.4891 61.5556L75.1101 57.9063C76.8475 60.6433 80.1179 62.4679 83.6949 62.4679C89.3159 62.4679 93.5061 58.5145 93.5061 50.709V49.6953C91.0533 52.3309 87.4763 53.8515 83.0817 53.8515C73.1683 53.8515 67.2406 46.046 67.2406 36.5173C67.2406 26.9885 73.1683 19.183 83.0817 19.183C87.4763 19.183 90.9511 20.7036 93.5061 23.3392V19.6899H100.354ZM93.3017 36.6186C93.3017 30.8405 90.2357 25.8734 84.1037 25.8734C77.8695 25.8734 74.8035 30.7392 74.8035 36.6186C74.8035 42.4981 77.9717 47.3638 84.1037 47.3638C90.1335 47.2625 93.3017 42.3967 93.3017 36.6186Z" fill="black"/>
<path d="M138.781 36.6188C138.781 46.1475 132.036 53.953 122.224 53.953C112.413 53.953 105.668 46.1475 105.668 36.6188C105.668 27.09 112.413 19.2845 122.224 19.2845C132.138 19.1831 138.781 27.09 138.781 36.6188ZM131.729 36.6188C131.729 30.8407 128.459 25.8736 122.224 25.8736C116.092 25.8736 112.72 30.7393 112.72 36.6188C112.72 42.4982 115.99 47.364 122.224 47.364C128.356 47.2626 131.729 42.3968 131.729 36.6188Z" fill="black"/>
<path d="M162.9 7.12007L159.119 11.9858C157.79 10.7694 155.337 10.2625 154.111 10.7694C152.578 11.3776 152.067 12.8981 152.067 15.4324V19.6899H158.199V25.7721H152.067V53.4461H145.219V25.7721H141.234V19.6899H145.219V15.331C145.219 9.14746 147.366 5.70089 151.556 4.38308C155.133 3.36939 160.243 4.58582 162.9 7.12007Z" fill="black"/>
<path d="M164.637 10.5667C164.637 8.43792 166.375 6.71463 168.623 6.71463C170.769 6.71463 172.507 8.43792 172.507 10.5667C172.507 12.6954 170.769 14.5201 168.623 14.5201C166.375 14.5201 164.637 12.7968 164.637 10.5667ZM165.251 19.69H171.996V53.4461H165.251V19.69Z" fill="black"/>
<path d="M210.014 4.48451V53.4461H203.269V49.7968C200.816 52.4324 197.239 53.953 192.845 53.953C182.931 53.953 177.004 46.1475 177.004 36.6187C177.004 27.09 182.931 19.2845 192.845 19.2845C197.239 19.2845 200.714 20.8051 203.269 23.4407V4.48451H210.014ZM202.963 36.6187C202.963 30.8407 199.897 25.8735 193.764 25.8735C187.53 25.8735 184.464 30.7393 184.464 36.6187C184.464 42.4982 187.632 47.3639 193.764 47.3639C199.794 47.2626 202.963 42.3968 202.963 36.6187Z" fill="black"/>
<path d="M222.892 39.964C223.914 44.1201 226.98 47.364 231.885 47.364C235.462 47.364 238.119 45.6407 239.652 43.2078L245.784 46.1475C243.025 50.9119 238.119 54.0544 231.885 54.0544C221.972 54.0544 215.329 46.2489 215.329 36.7201C215.329 27.1914 221.87 19.3859 231.681 19.3859C241.594 19.3859 246.806 27.1914 246.806 36.7201C246.806 37.8352 246.704 38.9503 246.5 40.0653H222.892V39.964ZM222.789 33.679H240.061C239.346 29.2187 236.893 25.8735 231.783 25.8735C226.673 25.8735 223.709 29.2187 222.789 33.679ZM241.39 4.48451L234.236 14.0133H229.33L234.645 4.48451H241.39Z" fill="black"/>
<path d="M265.407 54.0543C257.64 54.0543 252.734 50.1009 251.099 45.4378L257.435 43.2077C258.253 45.3365 260.501 47.3639 265.1 47.3639C269.597 47.3639 271.335 45.2351 271.13 43.3091C270.926 41.6872 268.882 40.6735 263.567 39.6598C257.026 38.342 252.938 36.3146 252.121 31.1447C251.201 25.8735 254.778 19.0817 264.18 19.0817C272.97 19.0817 276.138 25.0625 276.751 27.1913L270.415 29.32C269.597 26.9885 266.838 25.5694 264.18 25.5694C259.684 25.5694 258.866 27.9009 258.866 29.1173C258.866 30.942 260.297 32.4625 265.816 33.4762C273.583 34.8954 277.569 37.2269 277.978 42.4981C278.386 49.2899 273.174 54.0543 265.407 54.0543Z" fill="black"/>
<path d="M45.2366 59.936C42.4772 66.6264 38.1847 71.1881 32.3593 73.4182C26.9427 75.4456 21.1173 75.2429 14.9853 72.81C8.85328 70.3771 4.56087 66.4237 2.00587 60.8483C-0.651339 55.0703 -0.651338 49.0894 1.90367 42.7031L14.9853 10.2648C16.7227 6.10865 19.5843 3.06755 23.7745 1.34427C27.9647 -0.37902 32.1549 -0.480389 36.3451 1.2429C40.4332 2.86481 43.397 5.80454 45.1344 9.9607C46.8718 14.1169 46.974 18.273 45.3388 22.3278L33.9945 50.4072C33.0747 52.7388 31.3373 54.462 28.9867 55.4757C26.6361 56.4894 24.1833 56.4894 21.8327 55.5771C19.3799 54.6648 17.7447 52.9415 16.7227 50.61C15.7007 48.2785 15.7007 45.8456 16.6205 43.5141L28.0669 15.3333L32.3593 17.0566L20.9129 45.136C20.5041 46.2511 20.5041 47.4675 20.9129 48.684C21.3217 49.9004 22.1393 50.7114 23.3657 51.2182C24.5921 51.7251 25.8185 51.7251 27.0449 51.2182C28.2713 50.7114 29.1911 49.9004 29.7021 48.684L41.0464 20.6045C42.2728 17.6648 42.2728 14.6237 40.9442 11.684C39.7178 8.74426 37.5715 6.71687 34.6077 5.50043C31.5417 4.28399 28.5779 4.28399 25.6141 5.6018C22.6503 6.81824 20.5041 8.947 19.2777 11.9881L6.19608 44.4264C4.25427 49.1908 4.35647 53.9552 6.40048 58.6182C8.44448 63.3826 11.9193 66.6264 16.6205 68.5524C21.4239 70.4785 26.1251 70.3771 30.9285 68.3497C35.7319 66.3223 39.0024 62.9771 40.9442 58.2127L49.3246 37.5333L53.617 39.2566L45.2366 59.936Z" fill="url(#paint0_linear_32_67)"/>
<defs>
<linearGradient id="paint0_linear_32_67" x1="84.5255" y1="-10.1972" x2="15.6715" y2="49.0122" gradientUnits="userSpaceOnUse">
<stop offset="0.4929" stop-color="#04D9D9"/>
<stop offset="0.577" stop-color="#1CBAE2"/>
<stop offset="0.7095" stop-color="#3D8FEE"/>
<stop offset="0.8289" stop-color="#5570F8"/>
<stop offset="0.9297" stop-color="#645DFD"/>
<stop offset="1" stop-color="#6956FF"/>
</linearGradient>
</defs>
</svg>
